# xmcd
#
# Track frame offsets:
#	150
#	21268
#	40884
#	56068
#	70279
#	84155
#	105145
#	119536
#	140135
#	162487
#	180623
#	194196
#
# Disc length: 2803 seconds
#
# Revision: 1
# Processed by: cddbd v1.5.2PL0 Copyright (c) Steve Scherf et al.
# Submitted via: audiograbber 1.83.01
#
DISCID=ac0af10c
DTITLE=Sean Costello - In The Magic Shop
DYEAR=2014
DGENRE=Blues
TTITLE0=It's My Own Fault
TTITLE1=Can't Let Go
TTITLE2=Hard Luck Woman
TTITLE3=Trust In Me
TTITLE4=Feel Like I Ain't Got A Home
TTITLE5=You Don't Know What Love Is
TTITLE6=Check It Out
TTITLE7=I Went Wrong
TTITLE8=You Wear It Well
TTITLE9=Told Me A Lie
TTITLE10=Make A Move
TTITLE11=Fool's Paradise
EXTD=
EXTT0=
EXTT1=
EXTT2=
EXTT3=
EXTT4=
EXTT5=
EXTT6=
EXTT7=
EXTT8=
EXTT9=
EXTT10=
EXTT11=
PLAYORDER=
